HIERARCHY
ROOT Hips
{
	OFFSET 0.000000 0.000000 0.000000 
	CHANNELS 6 Xposition Yposition Zposition Zrotation Yrotation Xrotation
	JOINT LeftUpLeg
	{
		OFFSET 1.363060 -1.794630 0.839290 
		CHANNELS 3 Zrotation Yrotation Xrotation
		JOINT LeftLeg
		{
			OFFSET 2.448110 -6.726130 0.000000 
			CHANNELS 3 Zrotation Yrotation Xrotation
			JOINT LeftFoot
			{
				OFFSET 2.562200 -7.039590 0.000000 
				CHANNELS 3 Zrotation Yrotation Xrotation
				JOINT LeftToeBase
				{
					OFFSET 0.157640 -0.433110 2.322550 
					CHANNELS 3 Zrotation Yrotation Xrotation
					End Site
					{
						OFFSET 0.000000 0.000000 0.000000 
					}
				}
			}
		}
	}
	JOINT RightUpLeg
	{
		OFFSET -1.305520 -1.794630 0.839290 
		CHANNELS 3 Zrotation Yrotation Xrotation
		JOINT RightLeg
		{
			OFFSET -2.542530 -6.985550 0.000000 
			CHANNELS 3 Zrotation Yrotation Xrotation
			JOINT RightFoot
			{
				OFFSET -2.568260 -7.056230 0.000000 
				CHANNELS 3 Zrotation Yrotation Xrotation
				JOINT RightToeBase
				{
					OFFSET -0.164730 -0.452590 2.363150 
					CHANNELS 3 Zrotation Yrotation Xrotation
					End Site
					{
						OFFSET 0.000000 0.000000 0.000000 
					}
				}
			}
		}
	}
	JOINT Spine
	{
		OFFSET 0.028270 2.035590 -0.193380 
		CHANNELS 3 Zrotation Yrotation Xrotation
		JOINT Spine1
		{
			OFFSET 0.056720 2.048850 -0.042750 
			CHANNELS 3 Zrotation Yrotation Xrotation
			JOINT Neck1
			{
				OFFSET -0.054170 1.746240 0.172020 
				CHANNELS 3 Zrotation Yrotation Xrotation
				JOINT Head
				{
					OFFSET 0.104070 1.761360 -0.123970 
					CHANNELS 3 Zrotation Yrotation Xrotation
					End Site
					{
						OFFSET 0.000000 0.000000 0.000000 
					}
				}
			}
			JOINT LeftArm
			{
				OFFSET 3.362410 1.200890 -0.311210 
				CHANNELS 3 Zrotation Yrotation Xrotation
				JOINT LeftForeArm
				{
					OFFSET 4.983000 -0.000000 -0.000000 
					CHANNELS 3 Zrotation Yrotation Xrotation
					JOINT LeftHand
					{
						OFFSET 3.483560 -0.000000 -0.000000 
						CHANNELS 3 Zrotation Yrotation Xrotation
						JOINT LeftHandIndex1
						{
							OFFSET 0.715260 -0.000000 -0.000000 
							CHANNELS 3 Zrotation Yrotation Xrotation
							End Site
							{
								OFFSET 0.000000 0.000000 0.000000 
							}
						}
					}
				}
			}
			JOINT RightArm
			{
				OFFSET -3.136600 1.374050 -0.404650 
				CHANNELS 3 Zrotation Yrotation Xrotation
				JOINT RightForeArm
				{
					OFFSET -5.241900 -0.000000 -0.000000 
					CHANNELS 3 Zrotation Yrotation Xrotation
					JOINT RightHand
					{
						OFFSET -3.444170 -0.000000 -0.000000 
						CHANNELS 3 Zrotation Yrotation Xrotation
						JOINT RightHandIndex1
						{
							OFFSET -0.622530 -0.000000 -0.000000 
							CHANNELS 3 Zrotation Yrotation Xrotation
							End Site
							{
								OFFSET 0.000000 0.000000 0.000000 
							}
						}
					}
				}
			}
		}
	}
}
MOTION
Frames: 15
Frame Time: 0.041667
-1.972447 18.359325 3.005138 -21.014739 62.600009 2.616915 7.118126 -17.335312 -18.792712 -1.409044 5.812158 15.239133 -9.087723 31.405148 -31.235651 0.279800 3.402200 9.400700 29.468807 20.266455 -24.591664 1.501292 -2.679142 8.897468 -2.116998 3.061047 18.769649 -0.277300 3.387300 -9.358900 -50.861236 7.208834 20.048780 4.808576 0.770948 -17.962015 10.507193 10.426413 -2.252094 3.729200 5.414000 2.083900 -141.147634 -40.528028 57.847526 130.141417 -59.958578 -93.445340 8.159699 -0.102776 21.487372 -7.125000 0.000000 0.000000 -73.158141 86.072760 -60.327771 -83.945587 59.468369 -59.233900 0.668169 1.992360 -72.083305 7.125000 0.000000 0.000000 
-1.968384 18.358074 3.010347 -21.276559 62.688000 2.390066 7.222498 -17.351567 -18.790802 -1.398636 5.832235 15.315507 -8.990898 31.178764 -31.259106 0.295400 3.494600 9.659000 29.629475 20.127907 -24.537689 1.512337 -2.627939 8.762102 -2.138544 3.143477 18.822494 -0.263300 3.300800 -9.117400 -50.908554 7.276026 19.972696 4.866569 0.832296 -18.061427 10.602877 10.378543 -2.116881 3.776700 5.403600 2.144500 -141.031688 -40.616000 57.622614 130.300393 -59.845749 -93.555818 8.151140 0.008555 21.252226 -7.125000 0.000000 0.000000 -69.475794 86.394081 -56.581425 -83.914472 59.431234 -59.165349 0.646406 1.980172 -71.981504 7.125000 0.000000 0.000000 
-1.962445 18.355678 3.014098 -21.791386 62.824530 1.971359 7.410690 -17.346395 -18.840273 -1.376150 5.855863 15.391874 -8.939938 31.019606 -31.203132 0.298200 3.511200 9.705400 29.921333 19.881044 -24.529171 1.526670 -2.562414 8.590648 -2.183094 3.324326 18.918086 -0.254300 3.244800 -8.961100 -50.926630 7.359252 19.886806 4.792411 0.868074 -18.010642 10.724328 10.301655 -2.091695 3.806800 5.370500 2.147400 -141.016490 -40.573354 57.632108 130.576629 -59.742303 -93.742673 8.134659 0.146131 20.813464 -7.125000 0.000000 0.000000 -70.865126 86.334181 -58.010682 -83.899416 59.439070 -59.182454 0.652199 1.975225 -71.917558 7.125000 0.000000 0.000000 
-1.955465 18.356095 3.023995 -21.920793 62.893983 1.942618 7.432818 -17.325386 -18.900542 -1.345681 5.893508 15.439116 -9.180875 31.492678 -30.947685 0.244600 3.182700 8.787800 29.949254 19.876452 -24.455853 1.538573 -2.498720 8.410920 -2.171696 3.244996 18.954939 -0.245200 3.186300 -8.797900 -51.085500 7.386267 19.602303 4.814272 0.928680 -17.905738 10.946462 10.229800 -2.055323 3.873100 5.344800 2.138900 -140.875384 -40.507566 57.490833 130.773404 -59.672281 -93.872931 8.113771 0.256604 20.487242 -7.125000 0.000000 0.000000 -71.667760 86.421468 -58.863862 -83.931718 59.445651 -59.232196 0.648978 1.978476 -71.829686 7.125000 0.000000 0.000000 
-1.949110 18.355470 3.035247 -22.209569 62.978880 1.718042 7.514384 -17.302515 -18.911968 -1.301301 5.924037 15.479895 -9.499836 32.097592 -30.593614 0.171800 2.670200 7.362000 30.073991 19.900607 -24.338177 1.548141 -2.439415 8.238369 -2.155112 3.141690 19.000875 -0.240200 3.154100 -8.708200 -51.145292 7.471930 19.467076 4.861830 1.009562 -17.869444 11.170242 10.187728 -2.058200 3.943800 5.333800 2.117000 -140.744915 -40.407256 57.390823 130.879924 -59.648979 -93.948276 8.108526 0.328046 20.430894 -7.125000 0.000000 0.000000 -71.874237 86.529721 -59.043563 -83.867038 59.432625 -59.183101 0.639908 1.983346 -71.735926 7.125000 0.000000 0.000000 
-1.945463 18.352240 3.035247 -22.763016 63.156764 1.196301 7.726069 -17.364571 -18.925810 -1.282479 5.934118 15.545906 -9.394278 31.820865 -30.569281 0.187800 2.790700 7.696700 30.252271 19.886344 -24.247882 1.556227 -2.386889 8.074478 -2.124786 2.971919 19.052791 -0.229000 3.080000 -8.501700 -51.088245 7.572221 19.540759 4.781998 1.032324 -17.931447 11.348257 10.110084 -1.966385 4.023100 5.311900 2.171100 -140.672148 -40.429725 57.386860 131.030253 -59.575588 -94.058921 8.140994 0.248084 20.234619 -7.125000 0.000000 0.000000 -70.146865 86.706428 -57.281612 -83.686325 59.391438 -59.001232 0.638028 1.976459 -71.570882 7.125000 0.000000 0.000000 
-1.941191 18.350573 3.030559 -23.199572 63.314094 0.755340 7.849321 -17.341876 -18.941589 -1.276996 5.946901 15.628264 -9.161823 31.273832 -30.612827 0.238000 3.139900 8.668400 30.355550 19.841796 -24.137737 1.564301 -2.338683 7.924801 -2.088041 2.772633 19.102004 -0.208800 2.942300 -8.118000 -51.091275 7.623041 19.536691 4.610649 1.015795 -18.021062 11.592718 10.036211 -1.929674 4.141800 5.294000 2.202500 -140.547097 -40.545702 57.325044 131.222044 -59.463868 -94.184698 8.183029 0.065782 20.047381 -7.125000 0.000000 0.000000 -66.861888 86.976203 -54.044290 -83.665118 59.368075 -58.958732 0.640892 1.959253 -71.567043 7.125000 0.000000 0.000000 
-1.936711 18.350677 3.026183 -23.693946 63.535486 0.295209 7.963944 -17.268768 -19.018438 -1.251741 5.969807 15.701621 -9.104026 31.033516 -30.397226 0.277400 3.387600 9.359800 30.457025 19.754973 -24.092403 1.572350 -2.295925 7.789970 -2.066087 2.654233 19.113058 -0.209900 2.950000 -8.139500 -51.211544 7.571805 19.358397 4.484111 0.968523 -18.084499 12.001994 10.007084 -1.720846 3.843300 5.320800 2.044200 -140.415316 -40.661219 57.197311 131.407125 -59.346238 -94.290343 8.163017 0.099021 19.888152 -7.125000 0.000000 0.000000 -62.990677 87.317063 -50.249485 -83.746511 59.361715 -59.032540 0.639722 1.935388 -71.684059 7.125000 0.000000 0.000000 
-1.931919 18.350677 3.027954 -23.967029 63.690830 0.103183 8.049118 -17.337773 -19.084916 -1.239775 5.997794 15.760934 -9.082133 30.968888 -30.359195 0.272900 3.360100 9.283100 30.473169 19.730587 -24.068403 1.580441 -2.253587 7.657074 -2.040481 2.495342 19.181143 -0.222400 3.035600 -8.377900 -51.350088 7.560120 19.099606 4.453256 0.989658 -18.028133 12.223666 9.938604 -1.694158 3.897500 5.296500 2.032600 -140.341936 -40.609312 57.104496 131.533250 -59.303385 -94.370442 8.139353 0.200737 19.641938 -7.125000 0.000000 0.000000 -64.369981 87.369731 -51.690973 -83.822370 59.379065 -59.128351 0.645645 1.930513 -71.626944 7.125000 0.000000 0.000000 
-1.927856 18.349844 3.039832 -24.250443 63.866967 -0.116237 8.122905 -17.306212 -19.172323 -1.194401 6.024548 15.793205 -9.381218 31.508623 -29.942287 0.184400 2.765800 7.627400 30.543714 19.739747 -24.031992 1.585706 -2.218107 7.537462 -2.006818 2.328248 19.164662 -0.228700 3.078400 -8.497100 -51.359133 7.643832 19.074948 4.517474 1.057915 -17.991113 12.491242 9.825330 -1.695947 3.992000 5.254300 2.025300 -140.273599 -40.581806 57.112349 131.553067 -59.283302 -94.432625 8.180066 0.182919 19.415117 -7.125000 0.000000 0.000000 -64.111676 87.474543 -51.468247 -83.764075 59.368280 -59.073425 0.650769 1.928565 -71.570889 7.125000 0.000000 0.000000 
-1.920979 18.349323 3.049208 -24.564437 64.059837 -0.386396 8.216557 -17.405842 -19.172469 -1.160916 6.037361 15.812553 -9.602450 31.921545 -29.670377 0.142400 2.432200 6.701600 30.609264 19.722465 -23.994629 1.590239 -2.190687 7.441003 -1.980469 2.199452 19.138884 -0.207500 2.932700 -8.091600 -51.356942 7.735871 19.078736 4.548150 1.115557 -17.973456 12.717890 9.733958 -1.677784 4.069400 5.224100 2.031800 -140.235764 -40.586375 57.092857 131.586393 -59.250191 -94.487365 8.215974 0.154942 19.358913 -7.125000 0.000000 0.000000 -63.105487 87.608443 -50.490806 -83.696304 59.352927 -59.014549 0.644403 1.922974 -71.593096 7.125000 0.000000 0.000000 
-1.914416 18.350052 3.051084 -24.739061 64.162690 -0.511137 8.242701 -17.520041 -19.121864 -1.166675 6.058499 15.850530 -9.542845 31.831514 -29.772147 0.146700 2.468300 6.801700 30.589681 19.688070 -23.902714 1.596909 -2.158574 7.336153 -1.950460 2.031024 19.171444 -0.190900 2.813800 -7.760700 -51.682930 7.637819 18.527335 4.270573 1.068830 -17.884433 12.992041 9.631289 -1.724999 4.119700 5.186100 1.993600 -139.809638 -40.497987 56.769814 131.656035 -59.238375 -94.530783 8.203658 0.168254 19.461793 -7.125000 0.000000 0.000000 -63.772983 87.758606 -51.450984 -83.711597 59.354956 -59.056262 0.644955 1.909162 -71.504441 7.125000 0.000000 0.000000 
-1.908581 18.350156 3.052959 -25.018430 64.225103 -0.613022 8.313142 -17.609486 -19.101412 -1.174908 6.085337 15.854686 -9.506775 31.788218 -29.849878 0.152900 2.519700 6.944400 30.613441 19.694702 -23.842472 1.601320 -2.137700 7.249086 -1.919904 1.875794 19.127030 -0.208800 2.942100 -8.117700 -52.412580 7.281630 17.295651 3.432591 0.842361 -17.607396 13.452116 9.478382 -1.820532 4.185000 5.138100 1.942300 -138.657655 -40.353537 56.334171 131.759500 -59.237884 -94.607090 8.168477 0.115488 19.462495 -7.125000 0.000000 0.000000 -64.073999 88.056807 -52.517201 -83.620100 59.330934 -58.980361 0.648564 1.901971 -71.359127 7.125000 0.000000 0.000000 
-1.903789 18.350156 3.054105 -25.292595 64.341798 -0.988856 8.406514 -17.648923 -19.073552 -1.154392 6.074258 15.873418 -9.564427 31.874798 -29.764694 0.139300 2.405200 6.626900 30.690201 19.719464 -23.733604 1.604778 -2.100857 7.147320 -1.887871 1.727672 19.156409 -0.203900 2.907700 -8.021800 -51.896285 7.645463 18.022056 4.462717 1.215950 -18.099378 13.230830 9.569472 -1.706230 4.161000 5.160500 1.941300 -139.289336 -40.106030 56.406036 132.046434 -59.164434 -94.803128 8.251885 0.097179 18.952346 -7.125000 0.000000 0.000000 -62.603932 88.214585 -50.161905 -83.731899 59.350246 -59.115654 0.631592 1.912091 -71.478454 7.125000 0.000000 0.000000 
-1.898788 18.350469 3.057022 -25.450106 64.452884 -1.242818 8.483383 -17.869779 -18.950799 -1.154313 6.063580 15.917488 -9.478417 31.732289 -29.928488 0.152100 2.512900 6.925400 30.713468 19.740272 -23.591841 1.611143 -2.052948 7.013343 -1.857742 1.584595 19.172507 -0.203600 2.905100 -8.014700 -51.502201 7.977278 18.629820 5.028292 1.473084 -18.345015 13.170176 9.583024 -1.710471 4.175000 5.157300 1.922700 -139.682967 -40.053239 56.791614 132.181333 -59.117508 -94.936829 8.326756 -0.058567 17.894420 -7.125000 0.000000 0.000000 -61.246038 88.293190 -48.320524 -83.695129 59.343084 -59.088815 0.615979 1.918419 -71.412369 7.125000 0.000000 0.000000 
